<?xml version="1.0" encoding="utf-8"?>
<!-- Generator: Adobe Illustrator 15.0.2, SVG Export Plug-In . SVG Version: 6.00 Build 0)  -->
<!DOCTYPE svg PUBLIC "-//W3C//DTD SVG 1.1//EN" "http://www.w3.org/Graphics/SVG/1.1/DTD/svg11.dtd">
<svg version="1.1" id="Layer_1" xmlns="http://www.w3.org/2000/svg" xmlns:xlink="http://www.w3.org/1999/xlink" x="0px" y="0px"
	 width="533px" height="94px" viewBox="0 0 533 94" enable-background="new 0 0 533 94" xml:space="preserve">
<g>
	<path fill="#FFFFFF" d="M53.464,41.885c0,0-16.749,6.869-37.603,8.094c0,0-0.969,3.247,2.312,3.149
		c3.282-0.096,15.846,0.009,26.156-4.053l12.923,12.857c12.731,17.284-9.773,14.187-15.586,13.426
		C35.854,74.6,12.875,65.185,19.923,62.49c7.048-2.696,16.252-0.546,16.941-1.345c0.687-0.799-1.569-3.206-1.569-3.206
		s-16.835-1.992-24.914,1.902c-8.08,3.896-3.591,14.92,26.698,20.122c30.288,5.204,36.983-7.184,37.132-10.184
		c0.148-3.002-21.275-28.526-21.275-28.526"/>
	<path fill="#FFFFFF" d="M57.707,29.608c0,0-11.054,0.605-10.71,0.206c0,0-3.484-1.607-0.524-3.997
		c13.554,0.328,20.797-1.748,20.797-1.748L57.707,29.608z"/>
	<path fill="#FFFFFF" d="M113.777,42.221C71.564,60.411,44.668,58.038,44.668,58.038s-1.322,3.11,1.277,4.24l-1.012-0.169
		c0,0,17.667,4.356,74.619-14.64L113.777,42.221z"/>
	<path fill="#FFFFFF" d="M67.269,24.07c30.588,40.087,31.759,55.695,31.759,55.695c-6.218,5.288-10.72,5.064-10.72,5.064
		c2.364-16.323-30.601-55.221-30.601-55.221L67.269,24.07z"/>
	<path fill="#FFFFFF" d="M90.665,74.899c0,0,19.918-9.492,41.238-5.261c0,0,0.961-0.147,0.948-2.313c0,0-17.155-6.486-41.434,2.659
		L90.665,74.899z"/>
	<path fill="#FFFFFF" d="M92.939,54.398c0,0,2.979,2.842,6.409,14.692l11.44-2.428c0,0-5.408-15.812-7.169-16.354L92.939,54.398z"/>
	<path fill="#FFFFFF" d="M94.085,16.865c0,0,26.876,23.332,24.475,60.333c-0.01,0.156,1.048,0.913,10.986-3.121
		c0,0,2.02-30.872-25.3-58.273c0,0-8.078-0.066-10.623,0.872L94.085,16.865z"/>
	<path fill="#FFFFFF" d="M71.272,24.63c0,0,13.24,12.088,60.757-15.095c0,0,7.011,1.791,7.158,2.751c0,0-32.91,23.622-66.669,18.977
		l-6.28-4.014C66.238,27.25,67.142,26.36,71.272,24.63z"/>
	<path fill="#FFFFFF" d="M84.407,8.396c0,0-4.265,2.936-5.094,5.839c-0.829,2.902,8.303,14.026,7.833,14.735
		c-0.47,0.708-0.47,0.708-0.47,0.708l-11.402,1.453l11.483,3.624c0,0-3.277,7.123-2.542,7.964
		c0.735,0.842,10.357-2.421,10.357-2.421l0.484-2.503c0,0,2.58,2.498,3.541,2.35c0.96-0.147,1.59,2.273,6.893-2.759l-9.175-5.739
		C96.316,31.646,88.862,15.985,84.407,8.396z"/>
	<path fill="#FFFFFF" d="M110.3,24.767c0,0,89.12,43.17,16.93,37.373l-3.382-10.21c0,0,42.295,12.823-6.485-16.706L110.3,24.767z"/>
	<path fill="#FFFFFF" d="M146.615,23.614c0,0,8.199,26.591-2.536,55.875c0,0,3.301,1.173,11.696-3.494l8.054-23.176
		c0,0-0.295-27.858-2.838-34.843C160.991,17.976,149.512,21.378,146.615,23.614z"/>
	<path fill="#FFFFFF" d="M178.992,75.6c0,0,14.813-39.679-10.808-25.5l-8.992,5.683l-0.931,11.505c0,0,25.907-26.31,5.969,11.811
		c0,0-0.653,0.273,1.262,0.877C167.406,80.58,178.992,75.6,178.992,75.6z"/>
	<path fill="#FFFFFF" d="M192.708,35.74c0,0,26.071,24.729,4.793,48.973l17.303-3.989l1.957-0.82c0,0,11.068-30.316-11.202-43.222
		C205.559,36.682,195.085,34.553,192.708,35.74z"/>
	<path fill="#FFFFFF" d="M209.657,68.89c0,0,0.474-1.157-1.073,0.641s-30.18,11.681-29.079-3.537
		c1.101-15.218,25.902-16.406,25.902-16.406L209.657,68.89z M198.661,56.82c0,0-8.933,7.958-7.336,11.314
		c1.597,3.355,8.332-2.531,9.078-3.035C201.15,64.594,201.584,56.938,198.661,56.82z"/>
	<path fill="#FFFFFF" d="M208.093,39.072c0,0,30.242,14.549,30.049,20.954c-0.191,6.405-17.514,7.144-20.333,5.45l-7.979-6.241
		l-1.33-13.242L208.093,39.072z M215.477,61.277c27.69,2.968-0.646-11.612-0.646-11.612L215.477,61.277z"/>
</g>
<g>
	<path fill="#FFFFFF" d="M418.98,43.027c0,0,12.886,4.561,17.84,4.667c0,0-7.654,1.361-10.31,1.774
		c-2.655,0.415-6.419-2.806-6.419-2.806L418.98,43.027z"/>
	<g>
		<path fill="#FFFFFF" d="M275.022,21.991c0,0-18.855,55.955-32.386,61.495c0,0,2.904,3.605,10.156,4.233
			c7.253,0.627,26.088-44.99,25.959-49.32C278.618,34.067,277.926,25.597,275.022,21.991z"/>
		<path fill="#FFFFFF" d="M262.501,24.885c0.163,10.136,16.007,52.486,20.246,54.462c4.242,1.976,16.701,2.984,16.701,2.984
			s-28.118-39.45-24.055-60.377C275.394,21.954,262.472,23.091,262.501,24.885z"/>
		<path fill="#FFFFFF" d="M285.91,75.737c0,0,43.217,8.285-2.358-4.111c-45.574-12.396-73.153-6.505-73.153-6.505
			s-2.388,1.586,2.521,2.746c4.908,1.158,35.908,4.069,39.544,2.959c3.633-1.112,14.64-1.906,14.64-1.906L285.91,75.737z"/>
		<path fill="#FFFFFF" d="M237.542,66.915c0,0,10.022,3.749,27.485,3.708c9.806-0.022,29.277-2.104,32.796-4.61l1.504-2.995
			C299.327,63.019,279.906,68.095,237.542,66.915z"/>
		<path fill="#FFFFFF" d="M291.568,34.727c0,0,9.321,13.904,2.733,47.066c0,0-0.949,2.493,9.998-1.893
			c0,0,2.659-35.021-4.529-47.039C299.771,32.862,295.056,32.133,291.568,34.727z"/>
		<path fill="#FFFFFF" d="M299.323,35.903c0,0,51.235,25.615,3.961,30.767l-2.996-28.615L299.323,35.903z M303.674,60.039
			c18.483-5.435-2.025-14.33-2.025-14.33L303.674,60.039z"/>
		<path fill="#FFFFFF" d="M307.676,62.637c0,0,10.14,14.57,13.327,16.502c0,0,1.125,0.786,10.519-4.193l-13.179-15.018
			L307.676,62.637z"/>
		<path fill="#FFFFFF" d="M341.506,68.411c-21.245,10.802-21.282-3.127-21.282-3.127c-7.507-24.271,22.346-11.809,22.346-11.809
			S362.753,57.608,341.506,68.411z M340.832,57.092c0,0-11.494-2.603-14.643,1.905c-3.146,4.508-1.323,6.275-1.323,6.275
			s1.066,4.687,6.199,0.582c5.135-4.105,2.819-1.779,2.819-1.779l6.157,1.636l1.826-5.725L340.832,57.092z"/>
		<polygon fill="#FFFFFF" points="334.349,63.42 342.221,65.997 336.336,67.585 330.725,66.892 		"/>
		<path fill="#FFFFFF" d="M340.367,30.959c0,0,3.312,24.276-1.841,50.405c0,0,1.602,1.415,8.879-2.231
			c0,0,5.099-47.021,3.767-54.753C351.172,24.38,343.161,28.547,340.367,30.959z"/>
		<path fill="#FFFFFF" d="M347.965,53.124c0,0,13.633-9.782,15.356-9.391c0,0,6.52,1.148,6.975,3.463c0,0,0.777,2.169-0.965,35.487
			c0,0-3.7,2.556-11.651,5.99c-0.679,0.294-2.143,0.2-2.871,0.51c0,0,4.055-7.818,6.713-27.409c0,0,2.842-10.956-10.068,0.44
			l-4.048,16.918l-7.589,1.654L347.965,53.124z"/>
		<path fill="#FFFFFF" d="M365.732,52.143c0,0,6.74,3.375,25.957-5.614c0,0,6.595,3.051,5.594,4.274c0,0-7.668,5.369-30.454,8.984
			l-1.79-4.43L365.732,52.143z"/>
		<path fill="#FFFFFF" d="M365.923,69.877c0,0,27.624-5.782,37.358-3.94c0,0,4.082,2.627,1.61,4.895c0,0-17.151-4.137-37.282,5.844
			L365.923,69.877z"/>
		<path fill="#FFFFFF" d="M376.133,55.042c0,0-0.17,3.949-2.579,15.874l9.868-1.319c0,0,2.311-15.173,2.633-15.317
			C386.379,54.135,376.133,55.042,376.133,55.042z"/>
		<path fill="#FFFFFF" d="M355.497,30.579c0,0,29.245,2.596,36.772,11.623c0,0-3.317,1.678-6.476,1.542
			c0,0-31.801-11.331-31.332-11.152C354.928,32.769,353.417,31.122,355.497,30.579z"/>
		<path fill="#FFFFFF" d="M373.7,45.284c0,0,5.986-3.067,7.864-19.208c0,0,3.337-0.332,7.098,2.44l-0.904,4.473
			c0,0,13.817-1.15,23.8-6.975c0,0,6.519,1.149,7.007,2.674c0,0-13.01,8.148-31.42,9.417c0,0-5.379,9.186-8.661,10.075
			c-3.284,0.888-3.284,0.888-3.284,0.888S371.33,45.183,373.7,45.284z"/>
		<path fill="#FFFFFF" d="M366.074,33.009c0,0,27.056,2.028,35.302-2.05l-2.326,2.591l-12.306,2.796l-10.592-0.294"/>
		<path fill="#FFFFFF" d="M399.633,48.848c0,0,10.909,16.291,12.517,35.457c0,0,0.651,2.033,2.491,0.95
			c1.84-1.082,6.29-1.523,7.195-2.962c0.907-1.438,8.896-20.51,5.49-32.156l-8.346-7.109c0,0-2.511,1.938-2.213,4.864
			c0.532,5.218,3.83,13.825,2.333,21.939c0,0-4.161-16.214-10.401-23.234c0,0-5.028-0.848-7.994-0.553
			C397.737,46.338,399.633,48.848,399.633,48.848z"/>
		<path fill="#FFFFFF" d="M481.447,49.024c0,0-30.201,0.607-51.677-2.95c0,0-26.116,16.08,30.769,15.665
			c0,0-30.45-3.413-37.915,5.868c-3.697,4.594,5.998,9.467,27.827,11.688c22.275,2.268,56.839,1.796,67.899-2.632
			c0,0,27.403-11.87-8.52-17.878c-5.371-0.899-7.793-1.546-17.902-0.766c0,0-25.574,3.443-31.689,8.245
			c0,0-19.184,11.945,45.123,3.302c0,0,0.757-2.922-1.47-2.701c0,0-36.597,7.085-29.101-0.401c0,0,27.5-12.697,41.702,0.571
			c0,0-0.188,3.987-7.997,6.938c-7.222,2.729-20.426,3.717-40.006,2.931c0,0-64.845,0.231-20.176-13.049
			c0,0,21.302,0.278,24.075-0.447c2.774-0.726,5.786-2.074,5.786-2.074s-39.826-1.283-37.257-7.081c0,0,2.982-3.143,40.776-1.209
			C481.696,53.044,484.782,52.438,481.447,49.024z"/>
	</g>
</g>
</svg>
